<svg width="167" height="122" viewBox="0 0 167 122" fill="none" xmlns="http://www.w3.org/2000/svg">
<path fill-rule="evenodd" clip-rule="evenodd" d="M12.0925 61.5258H0.0939941V76.1907C24.0494 76.1907 21.5141 78.1149 24.3219 68.4227C25.167 65.5064 26.4407 61.3285 26.7574 57.5263H29.4235C29.4235 73.4922 38.7559 105.411 38.7559 121.518H45.4215L57.2412 81.3445C58.7799 76.7709 61.0011 71.8847 61.4195 66.8583L64.0859 76.1907C90.323 76.1907 84.0834 81.0044 84.0834 61.5258C73.7192 61.5258 75.897 64.2372 70.6415 38.9722C69.2658 32.3588 65.5694 20.2893 65.419 13.5319C60.0373 17.475 51.6211 57.7346 45.9094 68.6801C45.8138 68.863 45.6071 69.2576 45.4215 69.5248L33.423 0.200317C26.8357 0.748349 29.4912 -0.547273 25.5865 12.3609C23.1533 20.4045 12.2183 55.8713 12.0925 61.5258Z" fill="#FEFEFE"/>
<path fill-rule="evenodd" clip-rule="evenodd" d="M130.744 22.8643C138.068 24.8198 140.887 29.9936 144.509 34.4293C162.363 56.2953 160.152 91.2896 135.627 111.736C131.322 115.325 132.272 111.795 130.744 117.519C143.554 136.648 184.601 81.0792 157.371 33.5656C153.716 27.188 143.498 14.2606 134.743 13.5319C133.395 18.5828 132.135 16.8937 130.744 22.8643Z" fill="#FEFEFE"/>
<path fill-rule="evenodd" clip-rule="evenodd" d="M117.412 44.1948C125.376 56.0875 129.411 50.9628 129.411 73.5243C129.411 82.4848 120.935 88.2614 117.412 93.5218C119.338 96.3965 120.462 97.4442 121.412 101.521C130.132 99.1922 140.076 84.7404 140.076 73.5243C140.076 59.1349 137.661 44.0882 122.745 36.1958C120.941 38.8891 119.216 41.5015 117.412 44.1948Z" fill="#FEFEFE"/>
<path fill-rule="evenodd" clip-rule="evenodd" d="M89.416 68.1918C89.416 83.0623 110.746 81.614 110.746 68.1918C110.746 55.584 89.416 55.584 89.416 68.1918Z" fill="#FEFEFE"/>
</svg>
