<svg width="119" height="95" viewBox="0 0 119 95" fill="none" xmlns="http://www.w3.org/2000/svg">
<path fill-rule="evenodd" clip-rule="evenodd" d="M61.5664 55.0292L47.2114 41.0896L32.856 27.1495H61.5664H90.2768L75.9218 41.0892L61.5664 55.0292Z" fill="#FEFEFE" stroke="#FEFEFE" stroke-width="0.755906" stroke-miterlimit="22.9256"/>
<path d="M73.453 0.59082H50.8193V27.1496H73.453V0.59082Z" fill="#FEFEFE" stroke="#FEFEFE" stroke-width="0.755906" stroke-miterlimit="22.9256"/>
<path fill-rule="evenodd" clip-rule="evenodd" d="M11.029 37.7814H39.7088L47.2089 45.0645L60.1458 57.6273L61.3878 59.4951L61.988 58.5926L75.9193 45.0642L83.419 37.7814H107.046C112.785 37.7814 117.481 42.6997 117.481 48.7118V73.2292H0.594482V48.7118C0.594482 42.6997 5.28979 37.7814 11.029 37.7814Z" fill="#FEFEFE" stroke="#FEFEFE" stroke-width="0.755906" stroke-miterlimit="22.9256"/>
<path fill-rule="evenodd" clip-rule="evenodd" d="M11.8971 78.663H0.577393V94.3851H11.8971V78.663Z" fill="#FEFEFE" stroke="#FEFEFE" stroke-width="0.755906" stroke-miterlimit="22.9256"/>
<path fill-rule="evenodd" clip-rule="evenodd" d="M118.102 78.663H106.782V94.3851H118.102V78.663Z" fill="#FEFEFE" stroke="#FEFEFE" stroke-width="0.755906" stroke-miterlimit="22.9256"/>
<path fill-rule="evenodd" clip-rule="evenodd" d="M101.85 78.663H90.5303V94.3851H101.85V78.663Z" fill="#FEFEFE" stroke="#FEFEFE" stroke-width="0.755906" stroke-miterlimit="22.9256"/>
<path fill-rule="evenodd" clip-rule="evenodd" d="M84.086 78.663H72.7664V94.3851H84.086V78.663Z" fill="#FEFEFE" stroke="#FEFEFE" stroke-width="0.755906" stroke-miterlimit="22.9256"/>
<path fill-rule="evenodd" clip-rule="evenodd" d="M65.9444 78.663H54.6248V94.3851H65.9444V78.663Z" fill="#FEFEFE" stroke="#FEFEFE" stroke-width="0.755906" stroke-miterlimit="22.9256"/>
<path fill-rule="evenodd" clip-rule="evenodd" d="M30.2706 78.6873H18.9509V94.4094H30.2706V78.6873Z" fill="#FEFEFE" stroke="#FEFEFE" stroke-width="0.755906" stroke-miterlimit="22.9256"/>
<path fill-rule="evenodd" clip-rule="evenodd" d="M46.5758 78.4937H35.2561V94.2157H46.5758V78.4937Z" fill="#FEFEFE" stroke="#FEFEFE" stroke-width="0.755906" stroke-miterlimit="22.9256"/>
</svg>
