<svg width="281" height="170" viewBox="0 0 281 170" fill="none" xmlns="http://www.w3.org/2000/svg">
<ellipse cx="59.6488" cy="57.5" rx="52.433" ry="51.5" fill="white"/>
<path d="M11.6986 105.655L20.5302 74L43.9273 96.9808L11.6986 105.655Z" fill="white"/>
<path d="M48.0708 71.1818V69.5455C48.0708 65.7955 48.3663 62.8068 48.9572 60.5795C49.5481 58.3523 50.4231 56.5682 51.5822 55.2273C52.7413 53.8636 54.1618 52.6364 55.8436 51.5455C57.2981 50.5909 58.5936 49.6705 59.7299 48.7841C60.889 47.8977 61.7981 46.9545 62.4572 45.9545C63.139 44.9545 63.4799 43.8182 63.4799 42.5455C63.4799 41.4091 63.2072 40.4091 62.6618 39.5455C62.1163 38.6818 61.3777 38.0114 60.4458 37.5341C59.514 37.0568 58.4799 36.8182 57.3436 36.8182C56.1163 36.8182 54.9799 37.1023 53.9345 37.6705C52.9118 38.2386 52.0822 39.0227 51.4458 40.0227C50.8322 41.0227 50.5254 42.1818 50.5254 43.5H33.0708C33.1163 38.5 34.2527 34.4432 36.4799 31.3295C38.7072 28.1932 41.6618 25.8977 45.3436 24.4432C49.0254 22.9659 53.0708 22.2273 57.4799 22.2273C62.3436 22.2273 66.6845 22.9432 70.5027 24.375C74.3208 25.7841 77.3322 27.9205 79.5368 30.7841C81.7413 33.625 82.8436 37.1818 82.8436 41.4545C82.8436 44.2045 82.3663 46.625 81.4118 48.7159C80.4799 50.7841 79.1731 52.6136 77.4913 54.2045C75.8322 55.7727 73.889 57.2045 71.6618 58.5C70.0254 59.4545 68.6504 60.4432 67.5368 61.4659C66.4231 62.4659 65.5822 63.6136 65.014 64.9091C64.4458 66.1818 64.1618 67.7273 64.1618 69.5455V71.1818H48.0708ZM56.389 94.0909C53.7527 94.0909 51.4913 93.1705 49.6049 91.3295C47.7413 89.4659 46.8208 87.2045 46.8436 84.5455C46.8208 81.9545 47.7413 79.7386 49.6049 77.8977C51.4913 76.0568 53.7527 75.1364 56.389 75.1364C58.889 75.1364 61.0936 76.0568 63.0027 77.8977C64.9345 79.7386 65.9118 81.9545 65.9345 84.5455C65.9118 86.3182 65.4458 87.9318 64.5368 89.3864C63.6504 90.8182 62.4913 91.9659 61.0595 92.8295C59.6277 93.6705 58.0708 94.0909 56.389 94.0909Z" fill="black"/>
<ellipse cx="53.7907" cy="52.8336" rx="53.7907" ry="52.8336" transform="matrix(-1 0 0 1 180.975 48)" fill="white"/>
<path d="M166.209 155.252L158.081 121.861L132.214 147.268L166.209 155.252Z" fill="white"/>
<path d="M138.584 67.1818L136.811 115.182H121.265L119.493 67.1818H138.584ZM129.038 138.091C126.402 138.091 124.14 137.17 122.254 135.33C120.39 133.466 119.47 131.205 119.493 128.545C119.47 125.955 120.39 123.739 122.254 121.898C124.14 120.057 126.402 119.136 129.038 119.136C131.538 119.136 133.743 120.057 135.652 121.898C137.584 123.739 138.561 125.955 138.584 128.545C138.561 130.318 138.095 131.932 137.186 133.386C136.299 134.818 135.14 135.966 133.709 136.83C132.277 137.67 130.72 138.091 129.038 138.091Z" fill="black"/>
</svg>
