<svg width="179" height="30" viewBox="0 0 179 30" fill="none" xmlns="http://www.w3.org/2000/svg">
<path d="M34.8247 27.1198H23.3878C23.2273 27.1198 23.0734 27.0599 22.9599 26.9533C22.8464 26.8468 22.7826 26.7023 22.7826 26.5516C22.7826 26.4009 22.8464 26.2563 22.9599 26.1498C23.0734 26.0432 23.2273 25.9834 23.3878 25.9834H34.8247C34.9796 25.9831 35.1317 25.9446 35.2657 25.8719C35.3998 25.7991 35.5112 25.6946 35.5888 25.5688L42.7162 13.9737C42.7933 13.8478 42.8338 13.7051 42.8338 13.5599C42.8338 13.4146 42.7933 13.272 42.7162 13.146L35.5888 1.55098C35.5112 1.42514 35.3998 1.32062 35.2657 1.24787C35.1317 1.17511 34.9796 1.13667 34.8247 1.13639H20.5635C20.4087 1.13667 20.2566 1.17511 20.1225 1.24787C19.9885 1.32062 19.8771 1.42514 19.7995 1.55098L16.1683 7.45663C16.088 7.58715 15.9558 7.6824 15.8008 7.72141C15.6457 7.76043 15.4805 7.74002 15.3415 7.66467C15.2025 7.58932 15.101 7.46521 15.0595 7.31964C15.0179 7.17406 15.0396 7.01896 15.1199 6.88843L18.7527 0.982784C18.9366 0.684594 19.2006 0.436913 19.5184 0.264462C19.8361 0.0920108 20.1965 0.000822819 20.5635 0L34.8247 0C35.192 0.000562079 35.5527 0.0916264 35.8708 0.26409C36.1888 0.436554 36.4531 0.684376 36.6372 0.982784L43.7678 12.5778C43.9507 12.8766 44.0471 13.2152 44.0471 13.5599C44.0471 13.9045 43.9507 14.2431 43.7678 14.5419L36.6372 26.137C36.4531 26.4354 36.1888 26.6832 35.8708 26.8557C35.5527 27.0281 35.192 27.1192 34.8247 27.1198Z" fill="white"/>
<path d="M22.4987 11.451C30.5614 12.5916 37.0689 13.0931 36.8517 13.2528L20.0479 14.0842C19.3441 14.1582 18.6925 14.3653 18.2582 14.6848L13.5024 17.9201C13.3489 18.0241 13.1641 18.08 12.9745 18.0799H11.5731C11.0262 18.003 10.4206 17.4882 10.1464 17.0961L0.534904 3.47152C0.477834 3.27329 14.4155 10.309 22.4972 11.451" fill="#FF4D00"/>
<path d="M15.9999 19.3895L21.6597 15.5141C22.1078 15.218 22.6323 15.0405 23.1784 15L39.7028 13.4979C39.935 13.5308 32.6468 15.674 27.2129 19.7003C21.7789 23.7267 20.4145 26.5006 20.4145 26.5006L15.561 20.3729C15.4656 20.0336 15.6341 19.657 16.0031 19.3835" fill="#FF4D00"/>
<path d="M81.995 29.9971H78.6818L80.24 28.7932C80.3549 28.7062 80.4596 28.608 80.5522 28.5002C80.6703 28.3617 80.7798 28.2171 80.8801 28.0668L81.5464 27.1386C81.7131 26.9294 81.8176 26.6824 81.8494 26.4229C81.8812 26.1634 81.8391 25.9006 81.7274 25.6614L77.6719 17.0957H81.2316L84.1907 23.5563L88.7315 17.1031H92.1942L83.3958 29.3422C83.2392 29.5497 83.0309 29.7181 82.789 29.8327C82.5471 29.9473 82.279 30.0046 82.0081 29.9996" fill="white"/>
<path d="M76.7274 27.0376H71.9138L67.2522 23.6153C66.9937 23.4362 66.7903 23.1961 66.6627 22.9193C66.5351 22.6426 66.4878 22.339 66.5256 22.0396C66.5831 21.7151 66.7149 21.4062 66.9119 21.1342C67.1089 20.8621 67.3664 20.6334 67.6667 20.4638L73.1546 17.0858H77.9866L69.9411 22.042L76.7274 27.0376Z" fill="white"/>
<path d="M65.5445 27.0032H62.4071L63.7082 17.1204H66.8457L65.5445 27.0032Z" fill="white"/>
<path d="M55.0726 12.7723C58.5406 12.7723 61.3684 13.6907 62.6433 15.2344C62.8913 15.4869 63.083 15.7834 63.2069 16.1064C63.3308 16.4295 63.3844 16.7726 63.3647 17.1155H59.4797C59.2383 15.8475 57.5253 15.0399 55.0201 15.0399C52.6592 15.0399 50.8911 15.7318 50.8911 16.6502C50.8911 17.182 51.4368 17.4799 53.4357 18.0437L56.6912 18.9276C60.2824 19.9272 61.7488 21.0105 61.7488 22.6725C61.7488 25.2601 58.1838 26.9984 52.8769 26.9984C47.9242 26.9984 44.5901 25.3709 44.0444 22.7291H48.2102C48.6797 23.9601 50.537 24.7258 53.0553 24.7258C55.5736 24.7258 57.5437 23.9207 57.5437 22.894C57.5437 22.2317 57.145 21.8846 54.9205 21.2518L51.4761 20.267C49.6582 19.7573 48.9814 19.5013 48.3282 19.0704C47.4179 18.4795 46.9562 17.7532 46.9562 16.9111C46.9562 14.449 50.217 12.7797 55.07 12.7797" fill="white"/>
<path d="M125.596 27.0993C124.651 27.1082 123.708 26.9922 122.797 26.7546C122.012 26.5547 121.275 26.2163 120.625 25.7575C120.046 25.3425 119.584 24.8006 119.279 24.1793C118.975 23.5325 118.87 22.8186 118.975 22.1185C119.075 21.3756 119.37 20.6676 119.833 20.0577C120.31 19.4308 120.91 18.8951 121.601 18.4795C122.354 18.0336 123.178 17.7013 124.041 17.4946C124.982 17.2613 125.952 17.1455 126.926 17.15C127.868 17.1405 128.806 17.2565 129.712 17.4946C130.493 17.695 131.227 18.0289 131.879 18.4795C132.467 18.8917 132.935 19.435 133.243 20.0602C133.548 20.7069 133.653 21.4208 133.547 22.1209C133.447 22.8639 133.153 23.5719 132.689 24.1817C132.209 24.8122 131.602 25.349 130.903 25.7624C130.15 26.2046 129.33 26.5367 128.471 26.7472C127.53 26.9822 126.56 27.0981 125.586 27.0919M126.611 19.4422C125.983 19.4398 125.357 19.5228 124.754 19.6884C124.25 19.8225 123.77 20.0284 123.332 20.299C122.981 20.5154 122.682 20.7969 122.451 21.1262C122.243 21.4225 122.109 21.7593 122.06 22.1111C122.011 22.4439 122.053 22.7829 122.183 23.0959C122.323 23.422 122.551 23.7081 122.844 23.9257C123.219 24.2009 123.645 24.408 124.101 24.5363C124.682 24.7046 125.287 24.7876 125.895 24.7825C126.524 24.7843 127.149 24.7014 127.753 24.5363C128.256 24.4021 128.735 24.1961 129.172 23.9257C129.524 23.7087 129.825 23.4263 130.056 23.0959C130.264 22.7997 130.398 22.4629 130.447 22.1111C130.495 21.7783 130.453 21.4394 130.323 21.1262C130.184 20.8002 129.956 20.5141 129.662 20.2965C129.288 20.0211 128.862 19.8139 128.406 19.6859C127.825 19.5175 127.219 19.4345 126.611 19.4397" fill="#FF4D00"/>
<path d="M147.655 27.0771H144.699L145.433 21.3182C145.559 20.3334 144.227 19.4963 142.521 19.4963H138.264L137.296 27.0771H134.342L135.344 19.159C135.491 18.0166 136.826 17.1204 138.385 17.1204H142.815C146.178 17.1204 148.673 19.0039 148.379 21.3207L147.655 27.0771Z" fill="#FF4D00"/>
<path d="M99.6075 27.0772H92.1837L93.7 15.5398C93.8941 14.0625 95.6385 12.9103 97.6742 12.9103H101.467C107.136 12.9103 111.331 16.0889 110.817 19.9937C110.303 23.8986 105.274 27.0772 99.6049 27.0772M95.5494 24.6397H99.9302C103.92 24.6397 107.438 22.5568 107.776 19.9937C108.115 17.4307 105.153 15.3478 101.153 15.3478H97.3542C97.2425 15.3394 97.1301 15.3535 97.0247 15.3892C96.9193 15.4249 96.8233 15.4812 96.7429 15.5546L95.5494 24.6397Z" fill="#FF4D00"/>
<path d="M113.642 27.0771H110.594L111.294 21.7565C111.627 19.2156 114.741 17.1794 118.377 17.1252H119.127L118.818 19.548L118.094 19.5627C116.181 19.6021 114.497 20.587 114.345 21.7565L113.642 27.0771Z" fill="#FF4D00"/>
<path d="M163.759 20.0725C163.452 19.4476 162.985 18.9044 162.398 18.4918C161.747 18.0416 161.013 17.7078 160.234 17.507C159.328 17.2689 158.391 17.1529 157.45 17.1623C156.477 17.1576 155.506 17.2735 154.565 17.507C153.703 17.7138 152.88 18.0461 152.128 18.4918C151.437 18.9073 150.837 19.443 150.36 20.07C149.897 20.6791 149.602 21.3863 149.502 22.1283C149.397 22.8277 149.502 23.5406 149.806 24.1867C150.11 24.8069 150.571 25.3478 151.149 25.7624C151.799 26.2169 152.536 26.5511 153.319 26.7472C154.228 26.9846 155.169 27.1007 156.113 27.0919C157.086 27.0984 158.057 26.9825 158.998 26.7472C159.857 26.5366 160.677 26.2045 161.43 25.7624C162.128 25.3495 162.733 24.8135 163.214 24.1842C163.292 24.0783 163.361 23.9675 163.429 23.8592H159.827C159.785 23.8887 159.746 23.9183 159.704 23.9454C159.267 24.2161 158.788 24.422 158.285 24.556C157.681 24.7215 157.056 24.8044 156.427 24.8022C155.819 24.8075 155.214 24.7245 154.633 24.556C154.177 24.428 153.751 24.2209 153.376 23.9454C153.083 23.7288 152.855 23.4435 152.715 23.1181C152.675 23.0197 152.644 22.9184 152.621 22.8153H163.901C163.973 22.5897 164.025 22.3592 164.058 22.1259C164.165 21.4258 164.059 20.7117 163.754 20.0651M152.936 21.2001C152.949 21.178 152.962 21.1558 152.978 21.1336C153.208 20.804 153.508 20.5224 153.859 20.3064C154.297 20.0355 154.776 19.8295 155.281 19.6958C155.883 19.5303 156.508 19.4474 157.136 19.4496C157.744 19.4443 158.349 19.5273 158.93 19.6958C159.386 19.8236 159.812 20.0307 160.186 20.3064C160.48 20.5232 160.708 20.8084 160.848 21.1336C160.848 21.1558 160.863 21.178 160.871 21.2001H152.936Z" fill="#FF4D00"/>
<path d="M173.513 21.2862L171.167 20.6928C169.764 20.3235 169.496 20.1487 169.496 19.9542C169.496 19.5307 170.603 19.0752 172.251 19.0752C174.001 19.0752 175.213 19.6119 175.265 20.4146H178.465C178.459 19.853 178.256 19.309 177.888 18.8659C176.936 17.7875 174.84 17.1425 172.282 17.1425C168.66 17.1425 166.228 18.339 166.228 20.1191C166.228 20.7568 166.592 21.3034 167.314 21.7367C167.804 22.0396 168.303 22.2292 169.638 22.564L172.114 23.2312C173.733 23.6596 173.851 23.8591 173.851 24.1373C173.851 24.6297 172.639 25.164 170.837 25.164C169.035 25.164 167.705 24.6223 167.508 23.8246H164.098C164.344 25.8509 166.826 27.0943 170.706 27.0943C174.654 27.0943 177.306 25.846 177.306 23.9896C177.306 22.7585 176.207 21.983 173.507 21.2813" fill="#FF4D00"/>
</svg>
