<svg width="792" height="502" viewBox="0 0 792 502" fill="none" xmlns="http://www.w3.org/2000/svg">
<path d="M613.515 492.334H392.98C389.885 492.334 386.917 491.249 384.728 489.313C382.54 487.381 381.311 484.756 381.311 482.019C381.311 479.283 382.54 476.662 384.728 474.726C386.917 472.79 389.885 471.705 392.98 471.705H613.515C616.499 471.701 619.434 471 622.017 469.68C624.604 468.36 626.751 466.463 628.248 464.177L765.68 253.68C767.168 251.394 767.952 248.804 767.952 246.167C767.952 243.531 767.168 240.94 765.68 238.655L628.248 28.1566C626.751 25.8722 624.604 23.9747 622.017 22.6539C619.434 21.3331 616.499 20.6353 613.515 20.6301H338.521C335.535 20.6353 332.602 21.3331 330.017 22.6539C327.432 23.9747 325.284 25.8722 323.788 28.1566L253.769 135.368C252.221 137.738 249.672 139.467 246.682 140.176C243.692 140.884 240.507 140.513 237.826 139.145C235.145 137.777 233.189 135.524 232.388 132.881C231.586 130.239 232.006 127.423 233.553 125.053L303.603 17.8416C307.15 12.4282 312.24 7.93178 318.368 4.80106C324.495 1.67037 331.443 0.0149376 338.521 0H613.515C620.596 0.010204 627.553 1.6634 633.686 4.79433C639.818 7.92524 644.913 12.4243 648.463 17.8416L785.958 228.34C789.486 233.763 791.343 239.911 791.343 246.167C791.343 252.424 789.486 258.571 785.958 263.995L648.463 474.495C644.913 479.91 639.818 484.409 633.686 487.542C627.553 490.671 620.596 492.326 613.515 492.334Z" fill="white" fill-opacity="0.12"/>
<path d="M433.711 208.242C592.92 231.732 721.418 242.06 717.131 245.35L385.316 262.472C371.418 263.996 358.552 268.261 349.975 274.842L256.065 341.472C253.035 343.613 249.385 344.766 245.64 344.763H217.969C207.169 343.179 195.211 332.576 189.795 324.502L0.00344995 43.9048C-1.12347 39.8223 274.095 184.721 433.679 208.242" fill="white" fill-opacity="0.12"/>
<path d="M253.968 377.24L364.561 309.248C373.317 304.055 383.566 300.939 394.236 300.229L717.129 273.876C721.666 274.453 579.252 312.054 473.07 382.694C366.891 453.333 340.229 502 340.229 502L245.391 394.493C243.527 388.541 246.82 381.933 254.03 377.135" fill="white" fill-opacity="0.12"/>
</svg>
