<svg width="1402" height="882" viewBox="0 0 1402 882" fill="none" xmlns="http://www.w3.org/2000/svg">
<path d="M1104.92 882H736.496C731.326 882 726.367 880.056 722.71 876.588C719.055 873.126 717.001 868.424 717.001 863.522C717.001 858.62 719.055 853.924 722.71 850.456C726.367 846.988 731.326 845.043 736.496 845.043H1104.92C1109.91 845.037 1114.81 843.782 1119.12 841.417C1123.45 839.052 1127.03 835.653 1129.53 831.557L1359.13 454.46C1361.61 450.365 1362.92 445.724 1362.92 441.001C1362.92 436.278 1361.61 431.637 1359.13 427.542L1129.53 50.4417C1127.03 46.3491 1123.45 42.9499 1119.12 40.5837C1114.81 38.2176 1109.91 36.9675 1104.92 36.9582H645.516C640.528 36.9675 635.629 38.2176 631.31 40.5837C626.991 42.9499 623.402 46.3491 620.904 50.4417L503.93 242.508C501.344 246.753 497.085 249.85 492.091 251.12C487.096 252.388 481.774 251.725 477.295 249.274C472.817 246.824 469.549 242.787 468.211 238.053C466.871 233.319 467.572 228.274 470.157 224.029L587.182 31.9626C593.108 22.2647 601.612 14.2095 611.849 8.60095C622.084 2.99242 633.693 0.0267601 645.516 0H1104.92C1116.75 0.0182802 1128.37 2.97992 1138.62 8.58888C1148.86 14.1978 1157.38 22.2576 1163.31 31.9626L1393 409.063C1398.9 418.779 1402 429.792 1402 441.001C1402 452.21 1398.9 463.222 1393 472.939L1163.31 850.042C1157.38 859.743 1148.86 867.804 1138.62 873.416C1128.37 879.021 1116.75 881.986 1104.92 882Z" fill="white" fill-opacity="0.12"/>
<path d="M720.942 365.843C985.59 404.09 1199.19 420.906 1192.06 426.264L640.497 454.142C617.394 456.623 596.008 463.568 581.75 474.282L425.647 582.771C420.611 586.258 414.544 588.134 408.32 588.129H362.322C344.369 585.55 324.493 568.287 315.49 555.14L0.00573473 98.2665C-1.8675 91.6193 455.619 327.547 720.89 365.843" fill="white" fill-opacity="0.12"/>
<path d="M498.84 638.991L687.447 512.421C702.38 502.752 719.858 496.953 738.056 495.63L1288.72 446.573C1296.46 447.647 1053.58 517.644 872.5 649.144C691.421 780.644 645.952 871.24 645.952 871.24L484.213 671.11C481.033 660.03 486.651 647.729 498.946 638.796" fill="white" fill-opacity="0.12"/>
</svg>
