<svg width="1422" height="894" viewBox="0 0 1422 894" fill="white" xmlns="http://www.w3.org/2000/svg">
<path d="M1119.95 894H746.516C741.276 894 736.249 892.029 732.543 888.514C728.838 885.006 726.756 880.239 726.756 875.27C726.756 870.301 728.838 865.542 732.543 862.027C736.249 858.511 741.276 856.541 746.516 856.541H1119.95C1125.01 856.534 1129.98 855.262 1134.35 852.865C1138.73 850.468 1142.37 847.022 1144.9 842.871L1377.62 460.643C1380.14 456.492 1381.47 451.789 1381.47 447.001C1381.47 442.213 1380.14 437.509 1377.62 433.359L1144.9 51.128C1142.37 46.9797 1138.73 43.5342 1134.35 41.1359C1129.98 38.7376 1125.01 37.4704 1119.95 37.461H654.299C649.242 37.4704 644.277 38.7376 639.899 41.1359C635.521 43.5342 631.884 46.9797 629.351 51.128L510.786 245.808C508.165 250.11 503.848 253.25 498.786 254.536C493.723 255.822 488.328 255.149 483.789 252.666C479.25 250.182 475.938 246.091 474.581 241.291C473.223 236.493 473.934 231.379 476.554 227.077L595.171 32.3975C601.177 22.5677 609.797 14.4028 620.173 8.71797C630.548 3.03313 642.315 0.0271242 654.299 0H1119.95C1131.94 0.0185289 1143.72 3.02046 1154.11 8.70574C1164.49 14.391 1173.12 22.5605 1179.13 32.3975L1411.96 414.628C1417.93 424.477 1421.07 435.64 1421.07 447.001C1421.07 458.362 1417.93 469.525 1411.96 479.374L1179.13 861.607C1173.12 871.441 1164.49 879.61 1154.11 885.299C1143.72 890.981 1131.94 893.986 1119.95 894Z" fill="white" />
<path d="M730.751 370.82C999 409.587 1215.5 426.633 1208.28 432.063L649.212 460.321C625.794 462.836 604.117 469.875 589.665 480.735L431.439 590.7C426.333 594.234 420.184 596.135 413.875 596.13H367.251C349.055 593.516 328.907 576.018 319.783 562.693L0.00581276 99.6035C-1.89291 92.8659 461.818 332.003 730.698 370.82" fill="white" />
<path d="M505.626 647.685L696.8 519.393C711.936 509.592 729.652 503.714 748.097 502.373L1306.26 452.649C1314.1 453.737 1067.92 524.687 884.371 657.976C700.828 791.265 654.74 883.094 654.74 883.094L490.801 680.241C487.578 669.01 493.272 656.541 505.734 647.487" fill="white" />
</svg>
