<svg width="234" height="65" viewBox="0 0 234 65" fill="none" xmlns="http://www.w3.org/2000/svg">
<g clip-path="url(#clip0_407_74)">
<path d="M64.1153 65.104H42.7004C42.3998 65.104 42.1116 64.9702 41.8991 64.732C41.6866 64.4938 41.5672 64.1707 41.5672 63.8339C41.5672 63.497 41.6866 63.1739 41.8991 62.9357C42.1116 62.6975 42.3998 62.5637 42.7004 62.5637H64.1153C64.4052 62.5631 64.69 62.4771 64.941 62.3145C65.1921 62.1519 65.4006 61.9182 65.5459 61.6369L78.8915 35.7167C79.0358 35.4352 79.1118 35.1163 79.1118 34.7916C79.1118 34.467 79.0358 34.148 78.8915 33.8665L65.5459 7.94631C65.4006 7.665 65.1921 7.43136 64.941 7.26872C64.69 7.10608 64.4052 7.02015 64.1153 7.01952H37.4121C37.1221 7.02015 36.8374 7.10608 36.5863 7.26872C36.3353 7.43136 36.1267 7.665 35.9814 7.94631L29.1822 21.1481C29.0319 21.4399 28.7844 21.6528 28.4941 21.74C28.2038 21.8272 27.8944 21.7816 27.6341 21.6132C27.3738 21.4447 27.1838 21.1673 27.106 20.8419C27.0282 20.5164 27.0689 20.1697 27.2192 19.8779L34.0214 6.67614C34.3658 6.00955 34.8601 5.45587 35.4551 5.07036C36.0501 4.68486 36.7249 4.48101 37.4121 4.47917H64.1153C64.803 4.48043 65.4784 4.684 66.0739 5.06953C66.6695 5.45507 67.1643 6.00906 67.5089 6.67614L80.8605 32.5963C81.2032 33.2642 81.3835 34.0212 81.3835 34.7916C81.3835 35.562 81.2032 36.319 80.8605 36.9869L67.5089 62.9071C67.1643 63.5741 66.6695 64.1281 66.0739 64.5137C65.4784 64.8992 64.803 65.1028 64.1153 65.104Z" fill="white"/>
<path d="M40.9841 30.186C56.1114 32.7563 68.3208 33.8865 67.9134 34.2465L36.3859 36.1201C35.0653 36.2868 33.8429 36.7535 33.0279 37.4736L24.105 44.7646C23.8171 44.9989 23.4704 45.125 23.1146 45.1246H20.4853C19.4592 44.9513 18.323 43.7911 17.8085 42.9077L-0.224648 12.2035C-0.331722 11.7568 25.8182 27.6123 40.9812 30.186" fill="#FF4D00"/>
<path d="M28.8519 47.9584L39.4374 39.3139C40.2756 38.6535 41.2566 38.2574 42.2779 38.167L73.1837 34.8166C73.618 34.8899 59.9868 39.6706 49.8237 48.6518C39.6605 57.633 37.1086 63.8205 37.1086 63.8205L28.031 50.152C27.8526 49.3952 28.1679 48.5551 28.8579 47.945" fill="#FF4D00"/>
<path d="M124.366 65.2157H120.61L122.377 63.5855C122.507 63.4677 122.626 63.3347 122.731 63.1887C122.864 63.0013 122.989 62.8054 123.102 62.602L123.858 61.3452C124.047 61.0619 124.165 60.7275 124.201 60.3761C124.237 60.0247 124.19 59.6689 124.063 59.3449L119.465 47.7467H123.501L126.856 56.4945L132.004 47.7567H135.931L125.955 64.3289C125.777 64.6099 125.541 64.8379 125.267 64.9931C124.992 65.1482 124.688 65.2258 124.381 65.219" fill="white"/>
<path d="M118.394 61.2085H112.936L107.651 56.5745C107.358 56.332 107.127 56.0069 106.983 55.6321C106.838 55.2574 106.784 54.8464 106.827 54.4409C106.892 54.0016 107.042 53.5833 107.265 53.215C107.488 52.8466 107.78 52.5369 108.121 52.3073L114.343 47.7333H119.822L110.7 54.4442L118.394 61.2085Z" fill="white"/>
<path d="M105.715 61.1618H102.157L103.633 47.78H107.19L105.715 61.1618Z" fill="white"/>
<path d="M93.8413 41.8925C97.7733 41.8925 100.98 43.136 102.425 45.2263C102.706 45.5681 102.924 45.9695 103.064 46.407C103.205 46.8445 103.265 47.309 103.243 47.7733H98.8381C98.5645 46.0564 96.6223 44.9629 93.7818 44.9629C91.105 44.9629 89.1003 45.8997 89.1003 47.1432C89.1003 47.8633 89.719 48.2667 91.9854 49.0301L95.6765 50.2269C99.7483 51.5805 101.411 53.0473 101.411 55.2976C101.411 58.8014 97.3688 61.1551 91.3518 61.1551C85.7364 61.1551 81.9561 58.9515 81.3374 55.3743H86.0606C86.593 57.0412 88.6988 58.078 91.5541 58.078C94.4094 58.078 96.6431 56.9879 96.6431 55.5977C96.6431 54.7009 96.191 54.2308 93.6688 53.374L89.7636 52.0405C87.7024 51.3504 86.935 51.0037 86.1944 50.4203C85.1623 49.6202 84.6389 48.6367 84.6389 47.4966C84.6389 44.1628 88.3359 41.9025 93.8383 41.9025" fill="white"/>
<path d="M173.802 61.2918C172.73 61.3039 171.662 61.1467 170.629 60.8251C169.739 60.5544 168.903 60.0962 168.166 59.4749C167.509 58.913 166.985 58.1793 166.64 57.3379C166.295 56.4621 166.175 55.4955 166.295 54.5475C166.409 53.5417 166.743 52.583 167.268 51.7572C167.808 50.9083 168.489 50.183 169.272 49.6202C170.126 49.0164 171.06 48.5665 172.038 48.2867C173.106 47.9708 174.206 47.8139 175.31 47.82C176.377 47.8071 177.441 47.9643 178.469 48.2867C179.354 48.558 180.187 49.0101 180.926 49.6202C181.592 50.1783 182.124 50.914 182.472 51.7605C182.818 52.6362 182.937 53.6029 182.817 54.5509C182.704 55.5568 182.37 56.5156 181.845 57.3413C181.299 58.1949 180.611 58.9218 179.819 59.4815C178.966 60.0803 178.036 60.53 177.062 60.8151C175.995 61.1332 174.894 61.2901 173.79 61.2818M174.953 50.9237C174.241 50.9206 173.531 51.0329 172.847 51.2571C172.275 51.4387 171.732 51.7175 171.235 52.0839C170.837 52.3769 170.497 52.7581 170.236 53.204C170 53.6052 169.848 54.0611 169.793 54.5375C169.737 54.9881 169.785 55.4472 169.933 55.8711C170.09 56.3126 170.349 56.6999 170.682 56.9945C171.107 57.3673 171.59 57.6477 172.107 57.8213C172.766 58.0492 173.452 58.1616 174.141 58.1547C174.854 58.1572 175.563 58.045 176.247 57.8213C176.818 57.6396 177.361 57.3608 177.856 56.9945C178.255 56.7007 178.596 56.3184 178.858 55.8711C179.094 55.47 179.246 55.014 179.302 54.5375C179.356 54.0869 179.308 53.6281 179.162 53.204C179.004 52.7625 178.745 52.3752 178.412 52.0805C177.988 51.7076 177.504 51.4271 176.988 51.2538C176.329 51.0257 175.643 50.9133 174.953 50.9204" fill="#FF4D00"/>
<path d="M198.813 61.2618H195.461L196.294 53.4641C196.436 52.1306 194.926 50.9971 192.992 50.9971H188.165L187.067 61.2618H183.718L184.855 50.5403C185.021 48.9935 186.535 47.78 188.302 47.78H193.325C197.138 47.78 199.967 50.3303 199.634 53.4674L198.813 61.2618Z" fill="#FF4D00"/>
<path d="M144.336 61.2618H135.919L137.638 45.6397C137.858 43.6395 139.836 42.0793 142.144 42.0793H146.445C152.872 42.0793 157.628 46.3832 157.045 51.6705C156.462 56.9579 150.76 61.2618 144.333 61.2618M139.735 57.9614H144.702C149.226 57.9614 153.214 55.141 153.598 51.6705C153.981 48.2001 150.623 45.3797 146.088 45.3797H141.781C141.654 45.3684 141.527 45.3875 141.407 45.4358C141.288 45.4841 141.179 45.5604 141.088 45.6597L139.735 57.9614Z" fill="#FF4D00"/>
<path d="M160.248 61.2618H156.792L157.586 54.0575C157.964 50.617 161.494 47.86 165.617 47.7867H166.467L166.117 51.0671L165.296 51.0871C163.127 51.1404 161.218 52.474 161.045 54.0575L160.248 61.2618Z" fill="#FF4D00"/>
<path d="M217.072 51.7772C216.724 50.9311 216.194 50.1956 215.528 49.6369C214.791 49.0273 213.959 48.5753 213.075 48.3034C212.048 47.9811 210.985 47.824 209.919 47.8367C208.815 47.8303 207.715 47.9873 206.647 48.3034C205.67 48.5835 204.737 49.0334 203.884 49.6369C203.1 50.1996 202.42 50.9249 201.879 51.7739C201.355 52.5987 201.021 53.5562 200.907 54.5609C200.788 55.5078 200.907 56.4733 201.252 57.348C201.597 58.1878 202.119 58.9203 202.775 59.4816C203.512 60.097 204.346 60.5496 205.234 60.8151C206.266 61.1366 207.332 61.2937 208.402 61.2818C209.506 61.2907 210.607 61.1337 211.674 60.8151C212.648 60.5299 213.578 60.0803 214.431 59.4816C215.222 58.9225 215.909 58.1968 216.453 57.3447C216.543 57.2013 216.62 57.0513 216.697 56.9046H212.614C212.566 56.9446 212.521 56.9846 212.474 57.0213C211.979 57.3878 211.436 57.6667 210.865 57.8481C210.181 58.0722 209.472 58.1844 208.759 58.1814C208.07 58.1887 207.383 58.0762 206.725 57.8481C206.208 57.6748 205.724 57.3943 205.3 57.0213C204.967 56.728 204.708 56.3417 204.55 55.9011C204.505 55.7679 204.469 55.6308 204.443 55.4911H217.233C217.314 55.1857 217.374 54.8736 217.411 54.5576C217.532 53.6096 217.412 52.6428 217.066 51.7672M204.8 53.3041C204.815 53.2741 204.83 53.2441 204.848 53.2141C205.109 52.7678 205.449 52.3865 205.847 52.0939C206.343 51.7272 206.887 51.4483 207.459 51.2672C208.142 51.0432 208.85 50.9309 209.562 50.9338C210.251 50.9266 210.938 51.0391 211.596 51.2672C212.113 51.4402 212.597 51.7207 213.021 52.0939C213.354 52.3875 213.612 52.7737 213.771 53.2141C213.771 53.2441 213.788 53.2741 213.797 53.3041H204.8Z" fill="#FF4D00"/>
<path d="M228.131 53.4207L225.472 52.6173C223.88 52.1172 223.577 51.8805 223.577 51.6171C223.577 51.0437 224.832 50.427 226.7 50.427C228.684 50.427 230.058 51.1537 230.117 52.2406H233.746C233.738 51.4802 233.508 50.7436 233.092 50.1436C232.012 48.6834 229.636 47.81 226.736 47.81C222.628 47.81 219.871 49.4302 219.871 51.8405C219.871 52.704 220.284 53.4441 221.102 54.0308C221.658 54.4409 222.224 54.6976 223.738 55.151L226.545 56.0544C228.38 56.6345 228.514 56.9045 228.514 57.2812C228.514 57.948 227.14 58.6714 225.097 58.6714C223.053 58.6714 221.545 57.938 221.322 56.8579H217.456C217.735 59.6016 220.549 61.2851 224.948 61.2851C229.424 61.2851 232.431 59.5949 232.431 57.0812C232.431 55.4143 231.185 54.3642 228.125 53.4141" fill="#FF4D00"/>
</g>
<defs>
<clipPath id="clip0_407_74">
<rect width="234" height="65" fill="white"/>
</clipPath>
</defs>
</svg>
